
<svg width="15" height="8" viewBox="0 0 15 8" xmlns="http://www.w3.org/2000/svg">
<mask id="path-1-inside-1_13249_22763" >
<path fill-rule="evenodd" clip-rule="evenodd" d="M0.857851 4.48987C0.656758 4.19384 0.656758 3.80616 0.857851 3.51013C2.29697 1.39167 4.726 0 7.48007 0C10.2341 0 12.6632 1.39167 14.1023 3.51014C14.3034 3.80616 14.3034 4.19385 14.1023 4.48987C12.6632 6.60833 10.2341 8 7.48007 8C4.726 8 2.29697 6.60833 0.857851 4.48987Z"/>
</mask>
<path d="M14.1023 3.51014L13.2751 4.07206L14.1023 3.51014ZM14.1023 4.48987L13.2751 3.92794L14.1023 4.48987ZM1.68504 4.07206C2.94596 2.21591 5.07118 1 7.48007 1V-1C4.38082 -1 1.64798 0.567426 0.030664 2.94821L1.68504 4.07206ZM7.48007 1C9.88896 1 12.0142 2.21591 13.2751 4.07206L14.9295 2.94821C13.3122 0.567429 10.5793 -1 7.48007 -1V1ZM13.2751 3.92794C12.0142 5.78409 9.88896 7 7.48007 7V9C10.5793 9 13.3122 7.43257 14.9295 5.05179L13.2751 3.92794ZM7.48007 7C5.07118 7 2.94596 5.78409 1.68504 3.92794L0.030664 5.05179C1.64798 7.43257 4.38082 9 7.48007 9V7ZM13.2751 4.07206C13.2458 4.0289 13.2458 3.97111 13.2751 3.92794L14.9295 5.05179C15.361 4.41659 15.361 3.58342 14.9295 2.94821L13.2751 4.07206ZM0.030664 2.94821C-0.400846 3.58342 -0.400846 4.41658 0.030664 5.05179L1.68504 3.92794C1.71436 3.9711 1.71436 4.0289 1.68504 4.07206L0.030664 2.94821Z"  mask="url(#path-1-inside-1_13249_22763)"/>
<circle cx="7.48047" cy="4" r="3.5"/>
<circle cx="7.48047" cy="4" r="1" fill="white"/>
</svg>