<svg width="24" height="36" viewBox="0 0 24 36" xmlns="http://www.w3.org/2000/svg">
<path d="M23.8341 31.4978V34.9499C23.8341 35.2726 23.5724 35.5343 23.2497 35.5343C22.9269 35.5343 22.6653 35.2726 22.6653 34.9499V31.4978C22.6653 28.8099 20.4902 26.6347 17.8021 26.6348C16.5303 26.6348 15.3763 25.9868 14.7151 24.9015C14.5473 24.6259 14.6345 24.2662 14.9102 24.0984C15.1859 23.9304 15.5454 24.0178 15.7133 24.2935C16.1606 25.0277 16.9414 25.466 17.8021 25.466C21.1359 25.4659 23.8341 28.1637 23.8341 31.4978ZM13.6359 25.6397C13.7046 25.9551 13.5047 26.2664 13.1893 26.3351C11.6513 26.6702 10.0871 26.3348 8.8417 25.4847C7.60876 26.806 5.9799 26.6348 6.19795 26.6348C3.51009 26.6347 1.33481 28.8097 1.33481 31.4978V34.9499C1.33481 35.2726 1.07315 35.5343 0.750414 35.5343C0.42768 35.5343 0.166016 35.2726 0.166016 34.9499V31.4978C0.166016 28.1641 2.86367 25.466 6.19781 25.466C7.54645 25.466 8.63979 24.3794 8.63979 23.0304V22.8765C6.08896 21.6567 4.29851 19.0937 4.18938 16.1089C3.13965 15.8565 2.35751 14.917 2.35751 13.7991V10.7695C2.32559 9.28657 2.54576 5.5725 5.25379 2.96214C8.59764 -0.261251 13.9601 -0.056493 17.9032 1.84171C18.2875 2.02689 18.3458 2.54612 18.0267 2.81502C20.0242 3.30226 21.7467 4.53023 22.8534 6.28766C22.9105 6.37817 23.0151 6.52025 22.9878 6.74692C22.9708 6.88798 22.9288 7.00735 22.8201 7.11765C22.1079 7.83997 21.7157 8.79714 21.7157 9.8129V13.7992C21.7157 14.122 21.454 14.3836 21.1313 14.3836C20.8086 14.3836 20.5469 14.122 20.5469 13.7992V9.8129C20.5469 8.6414 20.9471 7.52943 21.6822 6.63618C20.5618 5.03376 18.8137 4.00318 16.8367 3.79148L15.8096 3.68146C15.2089 3.61718 15.0911 2.78975 15.6493 2.56L16.1164 2.36766C10.0324 0.246664 3.52623 2.60332 3.52623 10.7631V13.7991C3.52623 14.2628 3.7933 14.6658 4.18368 14.8682V11.0797C4.18368 8.82402 6.01884 6.98886 8.27447 6.98886H15.7255C17.9812 6.98886 19.8163 8.82387 19.8163 11.0794V15.8644C19.8163 20.9468 14.8498 24.8072 9.79609 23.3194C9.76322 23.7363 9.65942 24.1387 9.49031 24.5127C10.4734 25.1878 11.7149 25.4602 12.9404 25.1931C13.2558 25.1244 13.5671 25.3244 13.6359 25.6397ZM12 22.4675C15.6655 22.4675 18.6475 19.4855 18.6475 15.82V11.0794C18.6475 9.46839 17.3367 8.15766 15.7255 8.15766H8.27447C6.66328 8.15766 5.35248 9.46847 5.35248 11.0797V15.82C5.35248 19.4855 8.33451 22.4675 12 22.4675ZM17.917 32.5393H16.1638C15.8411 32.5393 15.5794 32.8009 15.5794 33.1237C15.5794 33.4464 15.8411 33.7081 16.1638 33.7081H17.917C18.2398 33.7081 18.5014 33.4464 18.5014 33.1237C18.5014 32.8009 18.2398 32.5393 17.917 32.5393Z"/>
</svg>
