<svg xmlns="http://www.w3.org/2000/svg" xmlns:xlink="http://www.w3.org/1999/xlink"><defs><symbol fill="none" viewBox="0 0 32 32" id="icon-account"><g clip-path="url(#icon-account_clip0_10653_23429)"><circle cx="16" cy="16" r="15.1" stroke="#202F2F" stroke-width="1.8" stroke-linecap="round" /><path fill-rule="evenodd" clip-rule="evenodd" d="M6.669 23.545a1.658 1.658 0 010-2.09A11.977 11.977 0 0116 17c3.77 0 7.132 1.737 9.332 4.455.495.61.495 1.48 0 2.09A11.977 11.977 0 0116 28a11.977 11.977 0 01-9.331-4.455z" fill="#202F2F" /><path d="M25.332 21.455l-1.399 1.132 1.399-1.132zm0 2.09l-1.399-1.132 1.399 1.132zm-17.264-.958A10.177 10.177 0 0116 18.8v-3.6c-4.334 0-8.203 2-10.73 5.122l2.798 2.265zM16 18.8c3.203 0 6.06 1.474 7.933 3.787l2.798-2.265a13.777 13.777 0 00-10.73-5.122v3.6zm7.933 3.613A10.177 10.177 0 0116 26.2v3.6c4.335 0 8.204-2 10.731-5.122l-2.798-2.265zM16 26.2c-3.202 0-6.06-1.474-7.932-3.787L5.27 24.678A13.777 13.777 0 0016 29.8v-3.6zm7.933-3.613a.142.142 0 010-.174l2.798 2.265a3.458 3.458 0 000-4.356l-2.798 2.265zM5.27 20.322a3.458 3.458 0 000 4.356l2.798-2.265c.04.05.04.125 0 .174L5.27 20.322z" fill="#202F2F" mask="url(#icon-account_a)" /><circle cx="16" cy="10" r="4.1" fill="#202F2F" stroke="#202F2F" stroke-width="1.8" stroke-linecap="round" /></g><defs></defs></symbol><mask id="icon-account_a" fill="#fff"><path fill-rule="evenodd" clip-rule="evenodd" d="M6.669 23.545a1.658 1.658 0 010-2.09A11.977 11.977 0 0116 17c3.77 0 7.132 1.737 9.332 4.455.495.61.495 1.48 0 2.09A11.977 11.977 0 0116 28a11.977 11.977 0 01-9.331-4.455z" /></mask><clipPath id="icon-account_clip0_10653_23429"><path fill="#fff" d="M0 0h32v32H0z" /></clipPath><symbol fill="none" viewBox="0 0 16 14" id="icon-arrow-left"><path d="M1 7h13.5M1 7l6 6M1 7l6-6" stroke="currentColor" stroke-width="1.8" stroke-linecap="round" stroke-linejoin="round" /></symbol><symbol fill="none" viewBox="0 0 12 12" id="icon-arrow-right"><path d="M11.063 6H.937m10.126 0l-4.5 4.5m4.5-4.5l-4.5-4.5" stroke="currentColor" stroke-width="1.8" stroke-linecap="round" stroke-linejoin="round" /></symbol><symbol fill="none" viewBox="0 0 14 12" id="icon-comments"><path d="M2.351 8.805l.018-.188-.112-.153a4.688 4.688 0 01-.927-2.78C1.33 2.883 3.934.5 7.27.5c3.334 0 5.938 2.383 5.938 5.184 0 2.802-2.604 5.184-5.938 5.184a6.606 6.606 0 01-2.444-.459l-.222-.088-.208.118c-.88.498-1.994.79-2.7.939.112-.209.208-.44.29-.686.178-.533.3-1.172.366-1.887z" stroke="currentColor" /></symbol><symbol fill="none" viewBox="0 0 18 18" id="icon-cross"><path d="M2 2l7 7m0 0l7 7M9 9l7-7M9 9l-7 7" stroke="currentColor" stroke-width="2.8" stroke-linecap="round" stroke-linejoin="round" /></symbol><symbol viewBox="0 0 15 8" id="icon-eye"><path d="M14.102 3.51l-.827.562.827-.562zm0 .98l-.827-.562.827.562zM1.685 4.072A6.992 6.992 0 017.48 1v-2A8.992 8.992 0 00.03 2.948l1.655 1.124zM7.48 1a6.992 6.992 0 015.795 3.072l1.655-1.124A8.992 8.992 0 007.48-1v2zm5.795 2.928A6.992 6.992 0 017.48 7v2c3.1 0 5.832-1.567 7.45-3.948l-1.655-1.124zM7.48 7a6.992 6.992 0 01-5.795-3.072L.031 5.052A8.992 8.992 0 007.48 9V7zm5.795-2.928a.13.13 0 010-.144l1.655 1.124a1.871 1.871 0 000-2.104l-1.655 1.124zM.031 2.948a1.87 1.87 0 000 2.104l1.654-1.124a.13.13 0 010 .144L.031 2.948z" mask="url(#icon-eye_a)" /><circle cx="7.48" cy="4" r="3.5" /><circle cx="7.48" cy="4" r="1" fill="#fff" /></symbol><mask id="icon-eye_a"><path fill-rule="evenodd" clip-rule="evenodd" d="M.858 4.49a.871.871 0 010-.98A7.992 7.992 0 017.48 0a7.992 7.992 0 016.622 3.51.87.87 0 010 .98A7.992 7.992 0 017.48 8 7.992 7.992 0 01.858 4.49z" /></mask><symbol viewBox="0 0 20 20" id="icon-i"><path fill-rule="evenodd" clip-rule="evenodd" d="M9 6a1 1 0 112 0 1 1 0 01-2 0zm0 3a1 1 0 012 0v5a1 1 0 01-2 0V9zm1 9c-4.411 0-8-3.589-8-8s3.589-8 8-8 8 3.589 8 8-3.589 8-8 8zm0-18C4.477 0 0 4.477 0 10s4.477 10 10 10c5.522 0 10-4.477 10-10S15.522 0 10 0z" /></symbol><symbol fill="none" viewBox="0 0 20 20" id="icon-info"><path fill-rule="evenodd" clip-rule="evenodd" d="M9 14a1 1 0 102 0 1 1 0 00-2 0zm0-3a1 1 0 002 0V6a1 1 0 00-2 0v5zm1-9c-4.411 0-8 3.589-8 8s3.589 8 8 8 8-3.589 8-8-3.589-8-8-8zm0 18C4.477 20 0 15.523 0 10S4.477 0 10 0c5.522 0 10 4.477 10 10s-4.478 10-10 10z" fill="#FF3332" /></symbol><symbol viewBox="0 0 40 40" id="icon-instagram"><path d="M24.715 10.503c-1.23-.056-1.6-.066-4.715-.066-3.115 0-3.483.011-4.713.066-3.165.145-4.639 1.644-4.784 4.784-.055 1.23-.068 1.598-.068 4.713s.013 3.483.068 4.715c.145 3.132 1.612 4.638 4.784 4.783 1.228.055 1.598.069 4.713.069 3.117 0 3.485-.012 4.715-.069 3.165-.143 4.637-1.646 4.783-4.783.055-1.23.067-1.6.067-4.715 0-3.115-.012-3.483-.067-4.713-.146-3.139-1.621-4.639-4.783-4.784zM20 25.992a5.992 5.992 0 110-11.984 5.992 5.992 0 010 11.984zm6.228-10.819a1.4 1.4 0 110-2.8 1.4 1.4 0 010 2.8zM23.888 20a3.888 3.888 0 11-7.776 0 3.888 3.888 0 017.776 0zM20 0C8.955 0 0 8.955 0 20s8.955 20 20 20 20-8.955 20-20S31.045 0 20 0zm11.597 24.81c-.192 4.242-2.554 6.592-6.785 6.787-1.245.056-1.644.07-4.812.07s-3.565-.014-4.81-.07c-4.24-.195-6.592-2.549-6.787-6.787-.056-1.243-.07-1.642-.07-4.81 0-3.168.014-3.565.07-4.81.195-4.24 2.549-6.592 6.787-6.785 1.245-.058 1.642-.072 4.81-.072 3.168 0 3.567.014 4.812.072 4.241.195 6.595 2.553 6.785 6.785.056 1.245.07 1.642.07 4.81 0 3.168-.014 3.567-.07 4.81z" /></symbol><symbol fill="none" viewBox="0 0 14 12" id="icon-like"><path d="M6.84 10.57l-.01-.011-.012-.01C5.136 9.089 3.785 7.9 2.85 6.784c-.93-1.11-1.396-2.088-1.396-3.12 0-1.674 1.312-2.975 3.04-2.975a3.4 3.4 0 012.52 1.153l.378.44.379-.44A3.4 3.4 0 0110.289.69c1.729 0 3.041 1.301 3.041 2.974 0 1.033-.466 2.012-1.396 3.121C10.999 7.9 9.648 9.09 7.966 10.55l-.012.01-.01.01-.552.541-.551-.54z" stroke="currentColor" /></symbol><symbol viewBox="0 0 25 24" id="icon-person"><path fill-rule="evenodd" clip-rule="evenodd" d="M12.46 13c-4.075 0-7.446 3.059-7.938 7.002-.069.548.386.998.938.998.552 0 .991-.451 1.083-.996A6.01 6.01 0 0112.46 15a6.01 6.01 0 015.917 5.004c.092.545.53.996 1.083.996.552 0 1.007-.45.938-.998C19.906 16.059 16.535 13 12.46 13z" /><path d="M12.46 11c2.206 0 4-1.794 4-4s-1.794-4-4-4-4 1.794-4 4 1.794 4 4 4" /></symbol><symbol viewBox="0 0 24 24" id="icon-question"><path fill-rule="evenodd" clip-rule="evenodd" d="M8.5 9.5C8.5 7.57 10.07 6 12 6s3.5 1.57 3.5 3.5c0 1.58-1.06 2.903-2.5 3.337V14a1 1 0 11-2 0v-2a1 1 0 011-1c.827 0 1.5-.673 1.5-1.5S12.827 8 12 8s-1.5.673-1.5 1.5a1 1 0 11-2 0zM11 17a1 1 0 112 0 1 1 0 11-2 0zm1 3c-4.411 0-8-3.589-8-8s3.589-8 8-8 8 3.589 8 8-3.589 8-8 8zm0-18C6.486 2 2 6.486 2 12s4.486 10 10 10 10-4.486 10-10S17.514 2 12 2z" /></symbol><symbol fill="none" viewBox="0 0 24 24" id="icon-search"><path d="M20 20l-4.904-4.904m0 0a6.5 6.5 0 10-9.192-9.192 6.5 6.5 0 009.192 9.192z" stroke="currentColor" stroke-width="1.8" stroke-linecap="round" stroke-linejoin="round" /></symbol><symbol viewBox="0 0 19 18" id="icon-star-fill"><path d="M9.5.019l3.071 5.273 5.964 1.291-4.066 4.55.615 6.072L9.5 14.743l-5.584 2.46.615-6.07-4.066-4.55 5.964-1.292L9.5.019z" /></symbol><symbol fill="none" viewBox="0 0 12 7" id="icon-toggle"><path d="M11 1L6 6 1 1" /></symbol><symbol viewBox="0 0 40 40" id="icon-youtube"><path d="M20 0C8.955 0 0 8.955 0 20s8.955 20 20 20 20-8.955 20-20S31.045 0 20 0zm7.402 28.153c-3.504.24-11.307.24-14.805 0-3.794-.26-4.235-2.116-4.264-8.153.029-6.048.475-7.893 4.264-8.153 3.498-.24 11.303-.24 14.805 0 3.795.26 4.235 2.116 4.265 8.153-.03 6.048-.475 7.893-4.265 8.153zM16.667 16.097l8.195 3.896-8.195 3.91v-7.806z" /></symbol></defs></svg>