<svg xmlns="http://www.w3.org/2000/svg" xmlns:xlink="http://www.w3.org/1999/xlink"><defs><symbol fill="none" viewBox="0 0 32 32" id="icon-account"><g clip-path="url(#icon-account_clip0_10653_23429)"><circle cx="16" cy="16" r="15.1" stroke="#202F2F" stroke-width="1.8" stroke-linecap="round" /><path fill-rule="evenodd" clip-rule="evenodd" d="M6.669 23.545a1.658 1.658 0 010-2.09A11.977 11.977 0 0116 17c3.77 0 7.132 1.737 9.332 4.455.495.61.495 1.48 0 2.09A11.977 11.977 0 0116 28a11.977 11.977 0 01-9.331-4.455z" fill="#202F2F" /><path d="M25.332 21.455l-1.399 1.132 1.399-1.132zm0 2.09l-1.399-1.132 1.399 1.132zm-17.264-.958A10.177 10.177 0 0116 18.8v-3.6c-4.334 0-8.203 2-10.73 5.122l2.798 2.265zM16 18.8c3.203 0 6.06 1.474 7.933 3.787l2.798-2.265a13.777 13.777 0 00-10.73-5.122v3.6zm7.933 3.613A10.177 10.177 0 0116 26.2v3.6c4.335 0 8.204-2 10.731-5.122l-2.798-2.265zM16 26.2c-3.202 0-6.06-1.474-7.932-3.787L5.27 24.678A13.777 13.777 0 0016 29.8v-3.6zm7.933-3.613a.142.142 0 010-.174l2.798 2.265a3.458 3.458 0 000-4.356l-2.798 2.265zM5.27 20.322a3.458 3.458 0 000 4.356l2.798-2.265c.04.05.04.125 0 .174L5.27 20.322z" fill="#202F2F" mask="url(#icon-account_a)" /><circle cx="16" cy="10" r="4.1" fill="#202F2F" stroke="#202F2F" stroke-width="1.8" stroke-linecap="round" /></g><defs></defs></symbol><mask id="icon-account_a" fill="#fff"><path fill-rule="evenodd" clip-rule="evenodd" d="M6.669 23.545a1.658 1.658 0 010-2.09A11.977 11.977 0 0116 17c3.77 0 7.132 1.737 9.332 4.455.495.61.495 1.48 0 2.09A11.977 11.977 0 0116 28a11.977 11.977 0 01-9.331-4.455z" /></mask><clipPath id="icon-account_clip0_10653_23429"><path fill="#fff" d="M0 0h32v32H0z" /></clipPath><symbol fill="none" viewBox="0 0 16 14" id="icon-arrow-left"><path d="M1 7h13.5M1 7l6 6M1 7l6-6" stroke="currentColor" stroke-width="1.8" stroke-linecap="round" stroke-linejoin="round" /></symbol><symbol fill="none" viewBox="0 0 12 12" id="icon-arrow-right"><path d="M11.063 6H.937m10.126 0l-4.5 4.5m4.5-4.5l-4.5-4.5" stroke="currentColor" stroke-width="1.8" stroke-linecap="round" stroke-linejoin="round" /></symbol><symbol fill="none" viewBox="0 0 14 12" id="icon-comments"><path d="M2.351 8.805l.018-.188-.112-.153a4.688 4.688 0 01-.927-2.78C1.33 2.883 3.934.5 7.27.5c3.334 0 5.938 2.383 5.938 5.184 0 2.802-2.604 5.184-5.938 5.184a6.606 6.606 0 01-2.444-.459l-.222-.088-.208.118c-.88.498-1.994.79-2.7.939.112-.209.208-.44.29-.686.178-.533.3-1.172.366-1.887z" stroke="currentColor" /></symbol><symbol fill="none" viewBox="0 0 18 18" id="icon-cross"><path d="M2 2l7 7m0 0l7 7M9 9l7-7M9 9l-7 7" stroke="currentColor" stroke-width="2.8" stroke-linecap="round" stroke-linejoin="round" /></symbol><symbol fill="none" viewBox="0 0 24 24" id="icon-info"><path fill-rule="evenodd" clip-rule="evenodd" d="M11 8a1 1 0 112 0 1 1 0 01-2 0zm0 3a1 1 0 012 0v5a1 1 0 01-2 0v-5zm1 9c-4.411 0-8-3.589-8-8s3.589-8 8-8 8 3.589 8 8-3.589 8-8 8zm0-18C6.477 2 2 6.477 2 12s4.477 10 10 10c5.522 0 10-4.477 10-10S17.522 2 12 2z" fill="#34AADD" /><g mask="url(#icon-info_a)"><path fill="#34AADD" d="M0 0h24v24H0z" /></g></symbol><mask id="icon-info_a" style="mask-type:luminance" maskUnits="userSpaceOnUse" x="2" y="2" width="20" height="20"><path fill-rule="evenodd" clip-rule="evenodd" d="M11 8a1 1 0 112 0 1 1 0 01-2 0zm0 3a1 1 0 012 0v5a1 1 0 01-2 0v-5zm1 9c-4.411 0-8-3.589-8-8s3.589-8 8-8 8 3.589 8 8-3.589 8-8 8zm0-18C6.477 2 2 6.477 2 12s4.477 10 10 10c5.522 0 10-4.477 10-10S17.522 2 12 2z" fill="#fff" /></mask><symbol viewBox="0 0 40 40" id="icon-instagram"><path d="M24.715 10.503c-1.23-.056-1.6-.066-4.715-.066-3.115 0-3.483.011-4.713.066-3.165.145-4.639 1.644-4.784 4.784-.055 1.23-.068 1.598-.068 4.713s.013 3.483.068 4.715c.145 3.132 1.612 4.638 4.784 4.783 1.228.055 1.598.069 4.713.069 3.117 0 3.485-.012 4.715-.069 3.165-.143 4.637-1.646 4.783-4.783.055-1.23.067-1.6.067-4.715 0-3.115-.012-3.483-.067-4.713-.146-3.139-1.621-4.639-4.783-4.784zM20 25.992a5.992 5.992 0 110-11.984 5.992 5.992 0 010 11.984zm6.228-10.819a1.4 1.4 0 110-2.8 1.4 1.4 0 010 2.8zM23.888 20a3.888 3.888 0 11-7.776 0 3.888 3.888 0 017.776 0zM20 0C8.955 0 0 8.955 0 20s8.955 20 20 20 20-8.955 20-20S31.045 0 20 0zm11.597 24.81c-.192 4.242-2.554 6.592-6.785 6.787-1.245.056-1.644.07-4.812.07s-3.565-.014-4.81-.07c-4.24-.195-6.592-2.549-6.787-6.787-.056-1.243-.07-1.642-.07-4.81 0-3.168.014-3.565.07-4.81.195-4.24 2.549-6.592 6.787-6.785 1.245-.058 1.642-.072 4.81-.072 3.168 0 3.567.014 4.812.072 4.241.195 6.595 2.553 6.785 6.785.056 1.245.07 1.642.07 4.81 0 3.168-.014 3.567-.07 4.81z" /></symbol><symbol fill="none" viewBox="0 0 14 12" id="icon-like"><path d="M6.84 10.57l-.01-.011-.012-.01C5.136 9.089 3.785 7.9 2.85 6.784c-.93-1.11-1.396-2.088-1.396-3.12 0-1.674 1.312-2.975 3.04-2.975a3.4 3.4 0 012.52 1.153l.378.44.379-.44A3.4 3.4 0 0110.289.69c1.729 0 3.041 1.301 3.041 2.974 0 1.033-.466 2.012-1.396 3.121C10.999 7.9 9.648 9.09 7.966 10.55l-.012.01-.01.01-.552.541-.551-.54z" stroke="currentColor" /></symbol><symbol viewBox="0 0 24 36" id="icon-person"><path d="M23.834 31.498v3.452a.584.584 0 01-1.169 0v-3.452a4.86 4.86 0 00-4.863-4.863 3.589 3.589 0 01-3.087-1.734.584.584 0 01.998-.607 2.428 2.428 0 002.09 1.172 6.028 6.028 0 016.031 6.032zM13.636 25.64a.584.584 0 01-.447.695 5.593 5.593 0 01-4.347-.85c-1.233 1.321-2.862 1.15-2.644 1.15a4.86 4.86 0 00-4.863 4.863v3.452a.584.584 0 01-1.169 0v-3.452a6.028 6.028 0 016.032-6.032A2.436 2.436 0 008.64 23.03v-.154a7.83 7.83 0 01-4.45-6.767 2.385 2.385 0 01-1.832-2.31v-3.03c-.032-1.482.188-5.197 2.896-7.807C8.598-.26 13.96-.056 17.904 1.842a.586.586 0 01.123.973 7.888 7.888 0 014.826 3.473c.057.09.162.232.135.459a.591.591 0 01-.168.37 3.816 3.816 0 00-1.104 2.696v3.986a.584.584 0 01-1.17 0V9.813c0-1.172.401-2.284 1.136-3.177a6.75 6.75 0 00-4.845-2.845l-1.027-.11c-.601-.064-.719-.891-.16-1.121l.466-.192c-6.084-2.121-12.59.235-12.59 8.395V13.8c0 .464.267.867.658 1.07v-3.79a4.095 4.095 0 014.09-4.09h7.452a4.095 4.095 0 014.09 4.09v4.785c0 5.083-4.966 8.943-10.02 7.455-.033.417-.137.82-.306 1.194a4.425 4.425 0 003.45.68.585.585 0 01.696.447zM12 22.468a6.655 6.655 0 006.648-6.648v-4.74a2.925 2.925 0 00-2.922-2.922H8.274a2.925 2.925 0 00-2.922 2.922v4.74A6.655 6.655 0 0012 22.468zm5.917 10.071h-1.753a.584.584 0 000 1.17h1.753a.584.584 0 000-1.17z" /></symbol><symbol fill="none" viewBox="0 0 24 24" id="icon-question"><path fill-rule="evenodd" clip-rule="evenodd" d="M8.5 9.5C8.5 7.57 10.07 6 12 6s3.5 1.57 3.5 3.5c0 1.58-1.06 2.903-2.5 3.337V14a1 1 0 11-2 0v-2a1 1 0 011-1c.827 0 1.5-.673 1.5-1.5S12.827 8 12 8s-1.5.673-1.5 1.5a1 1 0 11-2 0zM11 17a1 1 0 112 0 1 1 0 11-2 0zm1 3c-4.411 0-8-3.589-8-8s3.589-8 8-8 8 3.589 8 8-3.589 8-8 8zm0-18C6.486 2 2 6.486 2 12s4.486 10 10 10 10-4.486 10-10S17.514 2 12 2z" fill="#6680AE" /></symbol><symbol fill="none" viewBox="0 0 24 24" id="icon-search"><path d="M20 20l-4.904-4.904m0 0a6.5 6.5 0 10-9.192-9.192 6.5 6.5 0 009.192 9.192z" stroke="currentColor" stroke-width="1.8" stroke-linecap="round" stroke-linejoin="round" /></symbol><symbol viewBox="0 0 21 21" id="icon-star-empty"><path d="M19.924 6.718l-5.734-.832L11.627.715c-.46-.922-1.79-.934-2.254 0L6.81 5.885l-5.734.833C.047 6.866-.365 8.128.38 8.85l4.149 4.023-.982 5.683c-.176 1.027.911 1.797 1.822 1.316l5.13-2.683 5.13 2.683c.91.477 1.998-.289 1.822-1.316l-.982-5.683 4.15-4.023c.745-.722.333-1.984-.696-2.132zm-5.475 5.499l.93 5.406-4.879-2.55-4.88 2.55.931-5.406-3.949-3.828L8.06 7.6 10.5 2.68l2.441 4.92 5.457.79-3.95 3.827z" /></symbol><symbol viewBox="0 0 19 18" id="icon-star-fill"><path d="M9.5.019l3.071 5.273 5.964 1.291-4.066 4.55.615 6.072L9.5 14.743l-5.584 2.46.615-6.07-4.066-4.55 5.964-1.292L9.5.019z" /></symbol><symbol viewBox="0 0 40 40" id="icon-youtube"><path d="M20 0C8.955 0 0 8.955 0 20s8.955 20 20 20 20-8.955 20-20S31.045 0 20 0zm7.402 28.153c-3.504.24-11.307.24-14.805 0-3.794-.26-4.235-2.116-4.264-8.153.029-6.048.475-7.893 4.264-8.153 3.498-.24 11.303-.24 14.805 0 3.795.26 4.235 2.116 4.265 8.153-.03 6.048-.475 7.893-4.265 8.153zM16.667 16.097l8.195 3.896-8.195 3.91v-7.806z" /></symbol></defs></svg>